<?xml version="1.0" encoding="UTF-8" standalone="no"?>
<svg
   width="102"
   height="34"
   version="1.1"
   id="svg49"
   sodipodi:docname="menubaritem.svg"
   inkscape:version="1.3.2 (091e20ef0f, 2023-11-25, custom)"
   xmlns:inkscape="http://www.inkscape.org/namespaces/inkscape"
   xmlns:sodipodi="http://sodipodi.sourceforge.net/DTD/sodipodi-0.dtd"
   xmlns:xlink="http://www.w3.org/1999/xlink"
   xmlns="http://www.w3.org/2000/svg"
   xmlns:svg="http://www.w3.org/2000/svg">
  <sodipodi:namedview
     id="namedview49"
     pagecolor="#ffffff"
     bordercolor="#000000"
     borderopacity="0.25"
     inkscape:showpageshadow="2"
     inkscape:pageopacity="0.0"
     inkscape:pagecheckerboard="0"
     inkscape:deskcolor="#d1d1d1"
     inkscape:zoom="9.5182119"
     inkscape:cx="49.641677"
     inkscape:cy="10.453644"
     inkscape:window-width="1920"
     inkscape:window-height="1018"
     inkscape:window-x="0"
     inkscape:window-y="38"
     inkscape:window-maximized="1"
     inkscape:current-layer="svg49" />
  <defs
     id="rounded">
    <style
       type="text/css"
       id="current-color-scheme">
        .ColorScheme-Text {
        color:#eff0f1;
        }
        .ColorScheme-NegativeText {
        color:#da4453;
        }
        .ColorScheme-Highlight {
        color:#3daee9;
        }
        .ColorScheme-Background {
        color:#31363b;
      }
      .ColorScheme-ButtonBackground {
        color:#444c53;
      }
    </style>
    <g
       class="ColorScheme-Highlight"
       id="g2">
      <linearGradient
         id="linearGradient991">
        <stop
           style="stop-color:currentColor;stop-opacity:1"
           offset="0"
           id="stop1" />
        <stop
           style="stop-color:currentColor;stop-opacity:0.2"
           offset="1"
           id="stop2" />
      </linearGradient>
    </g>
    <linearGradient
       id="linearGradient1360"
       x1="2"
       x2="32"
       y1="30"
       y2="30"
       gradientUnits="userSpaceOnUse"
       xlink:href="#linearGradient991" />
    <linearGradient
       id="linearGradient1362"
       x1="2"
       x2="32"
       y1="17"
       y2="17"
       gradientUnits="userSpaceOnUse"
       xlink:href="#linearGradient991" />
    <linearGradient
       id="linearGradient1364"
       x1="2"
       x2="32"
       y1="4"
       y2="4"
       gradientUnits="userSpaceOnUse"
       xlink:href="#linearGradient991" />
    <linearGradient
       id="linearGradient1366"
       x1="2"
       x2="32"
       y1="4"
       y2="4"
       gradientUnits="userSpaceOnUse"
       xlink:href="#linearGradient991" />
    <linearGradient
       id="linearGradient1368"
       x1="2"
       x2="32"
       y1="4"
       y2="4"
       gradientUnits="userSpaceOnUse"
       xlink:href="#linearGradient991" />
    <linearGradient
       id="linearGradient1370"
       x1="2"
       x2="32"
       y1="17"
       y2="17"
       gradientUnits="userSpaceOnUse"
       xlink:href="#linearGradient991" />
    <linearGradient
       id="linearGradient1372"
       x1="2"
       x2="32"
       y1="30"
       y2="30"
       gradientUnits="userSpaceOnUse"
       xlink:href="#linearGradient991" />
    <linearGradient
       id="linearGradient1374"
       x1="2"
       x2="32"
       y1="30"
       y2="30"
       gradientUnits="userSpaceOnUse"
       xlink:href="#linearGradient991" />
    <linearGradient
       id="linearGradient1376"
       x1="36"
       x2="66"
       y1="17"
       y2="17"
       gradientUnits="userSpaceOnUse"
       xlink:href="#linearGradient991" />
    <linearGradient
       id="linearGradient1378"
       x1="2"
       x2="32"
       y1="17"
       y2="17"
       gradientUnits="userSpaceOnUse"
       xlink:href="#linearGradient991" />
    <linearGradient
       id="linearGradient1380"
       x1="2"
       x2="32"
       y1="4"
       y2="4"
       gradientUnits="userSpaceOnUse"
       xlink:href="#linearGradient991" />
    <linearGradient
       id="linearGradient1382"
       x1="2"
       x2="32"
       y1="30"
       y2="30"
       gradientUnits="userSpaceOnUse"
       xlink:href="#linearGradient991" />
    <linearGradient
       id="linearGradient1384"
       x1="2"
       x2="32"
       y1="30"
       y2="30"
       gradientUnits="userSpaceOnUse"
       xlink:href="#linearGradient991" />
    <linearGradient
       id="linearGradient1386"
       x1="2"
       x2="32"
       y1="30"
       y2="30"
       gradientUnits="userSpaceOnUse"
       xlink:href="#linearGradient991" />
    <linearGradient
       id="linearGradient1388"
       x1="2"
       x2="32"
       y1="17"
       y2="17"
       gradientUnits="userSpaceOnUse"
       xlink:href="#linearGradient991" />
    <linearGradient
       id="linearGradient1390"
       x1="2"
       x2="32"
       y1="4"
       y2="4"
       gradientUnits="userSpaceOnUse"
       xlink:href="#linearGradient991" />
    <linearGradient
       id="linearGradient1392"
       x1="2"
       x2="32"
       y1="4"
       y2="4"
       gradientUnits="userSpaceOnUse"
       xlink:href="#linearGradient991" />
    <linearGradient
       id="linearGradient1394"
       x1="70"
       x2="100"
       y1="17"
       y2="17"
       gradientUnits="userSpaceOnUse"
       xlink:href="#linearGradient991" />
  </defs>
  <path
     id="hover-center"
     style="opacity:0.8;fill:url(#linearGradient1376)"
     d="M 62,6 V 28 H 40 V 6 Z" />
  <g
     id="hover-left"
     transform="translate(34)"
     style="opacity:0.8">
    <path
       style="opacity:0.001"
       d="M 0,6 H 6 V 28 H 0 Z"
       id="path2" />
    <path
       style="opacity:1;fill:url(#linearGradient1362)"
       d="M 2,6 H 6 V 28 H 2 Z"
       id="path3" />
  </g>
  <g
     id="hover-topleft"
     transform="translate(34)"
     style="opacity:0.8">
    <path
       style="opacity:0.001"
       d="M 0,0 H 6 V 6 H 0 Z"
       id="path4" />
    <path
       style="opacity:1;fill:url(#linearGradient1364)"
       d="M 6,2 V 6 H 2 C 2,2 6,2 6,2 Z"
       id="path5" />
  </g>
  <g
     id="hover-right"
     transform="translate(34)"
     style="opacity:0.8">
    <path
       style="opacity:0.001"
       d="m 28,6 h 6 v 22 h -6 z"
       id="path6" />
    <path
       style="opacity:1;fill:url(#linearGradient1370)"
       d="m 28,6 h 4 v 22 h -4 z"
       id="path7" />
  </g>
  <g
     id="hover-top"
     transform="translate(34)"
     style="opacity:0.8">
    <path
       style="opacity:0.001"
       d="M 28,0 V 6 H 6 V 0 Z"
       id="path8" />
    <path
       style="opacity:1;fill:url(#linearGradient1366)"
       d="M 28,2 V 6 H 6 V 2 Z"
       id="path9" />
  </g>
  <g
     id="hover-bottom"
     transform="translate(34)"
     style="opacity:0.8">
    <path
       style="opacity:0.001"
       d="m 28,28 v 6 H 6 v -6 z"
       id="path10" />
    <path
       style="opacity:1;fill:url(#linearGradient1374)"
       d="m 28,28 v 4 H 6 v -4 z"
       id="path11" />
  </g>
  <g
     id="hover-bottomright"
     transform="translate(34)"
     style="opacity:0.8">
    <path
       style="opacity:0.001"
       d="m 28,28 h 6 v 6 h -6 z"
       id="path12" />
    <path
       style="opacity:1;fill:url(#linearGradient1372)"
       d="m 28,32 v -4 h 4 c 0,4 -4,4 -4,4 z"
       id="path13" />
  </g>
  <g
     id="hover-topright"
     transform="translate(34)"
     style="opacity:0.8">
    <path
       style="opacity:0.001"
       d="m 28,0 h 6 v 6 h -6 z"
       id="path14" />
    <path
       style="opacity:1;fill:url(#linearGradient1368)"
       d="m 28,2 v 4 h 4 C 32,2 28,2 28,2 Z"
       id="path15" />
  </g>
  <g
     id="hover-bottomleft"
     transform="translate(34)"
     style="opacity:0.8">
    <path
       style="opacity:0.001"
       d="m 0,28 h 6 v 6 H 0 Z"
       id="path16" />
    <path
       style="opacity:1;fill:url(#linearGradient1360)"
       d="M 6,32 V 28 H 2 c 0,4 4,4 4,4 z"
       id="path17" />
  </g>
  <path
     id="normal-center"
     fill="transparent"
     d="M 28,6 V 28 H 6 V 6 Z" />
  <g
     id="normal-left">
    <path
       style="opacity:0.001"
       d="M 0,6 H 6 V 28 H 0 Z"
       id="path18" />
    <path
       fill="transparent"
       d="M 2,6 H 6 V 28 H 2 Z"
       id="path19" />
  </g>
  <g
     id="normal-topleft">
    <path
       style="opacity:0.001"
       d="M 0,0 H 6 V 6 H 0 Z"
       id="path20" />
    <path
       fill="transparent"
       d="M 6,2 V 6 H 2 C 2,2 6,2 6,2 Z"
       id="path21" />
  </g>
  <g
     id="normal-right">
    <path
       style="opacity:0.001"
       d="m 28,6 h 6 v 22 h -6 z"
       id="path22" />
    <path
       fill="transparent"
       d="m 28,6 h 4 v 22 h -4 z"
       id="path23" />
  </g>
  <g
     id="normal-top">
    <path
       style="opacity:0.001"
       d="M 28,0 V 6 H 6 V 0 Z"
       id="path24" />
    <path
       fill="transparent"
       d="M 28,2 V 6 H 6 V 2 Z"
       id="path25" />
  </g>
  <g
     id="normal-bottom">
    <path
       style="opacity:0.001"
       d="m 28,28 v 6 H 6 v -6 z"
       id="path26" />
    <path
       fill="transparent"
       d="m 28,28 v 4 H 6 v -4 z"
       id="path27" />
  </g>
  <g
     id="normal-bottomright">
    <path
       style="opacity:0.001"
       d="m 28,28 h 6 v 6 h -6 z"
       id="path28" />
    <path
       fill="transparent"
       d="m 28,32 v -4 h 4 c 0,4 -4,4 -4,4 z"
       id="path29" />
  </g>
  <g
     id="normal-topright">
    <path
       style="opacity:0.001"
       d="m 28,0 h 6 v 6 h -6 z"
       id="path30" />
    <path
       fill="transparent"
       d="m 28,2 v 4 h 4 C 32,2 28,2 28,2 Z"
       id="path31" />
  </g>
  <g
     id="normal-bottomleft">
    <path
       style="opacity:0.001"
       d="m 0,28 h 6 v 6 H 0 Z"
       id="path32" />
    <path
       fill="transparent"
       d="M 6,32 V 28 H 2 c 0,4 4,4 4,4 z"
       id="path33" />
  </g>
  <path
     id="pressed-center"
     style="opacity:0.8;fill:url(#linearGradient1394)"
     d="M 96,6 V 28 H 74 V 6 Z" />
  <g
     id="pressed-left"
     transform="translate(68)"
     style="opacity:0.8">
    <path
       style="opacity:0.001"
       d="M 0,6 H 6 V 28 H 0 Z"
       id="path34" />
    <path
       style="opacity:1;fill:url(#linearGradient1378)"
       d="M 2,6 H 6 V 28 H 2 Z"
       id="path35" />
  </g>
  <g
     id="pressed-topleft"
     transform="translate(68)"
     style="opacity:0.8">
    <path
       style="opacity:0.001"
       d="M 0,0 H 6 V 6 H 0 Z"
       id="path36" />
    <path
       style="opacity:1;fill:url(#linearGradient1380)"
       d="M 6,2 V 6 H 2 C 2,2 6,2 6,2 Z"
       id="path37" />
  </g>
  <g
     id="pressed-right"
     transform="translate(68)"
     style="opacity:0.8">
    <path
       style="opacity:0.001"
       d="m 28,6 h 6 v 22 h -6 z"
       id="path38" />
    <path
       style="opacity:1;fill:url(#linearGradient1388)"
       d="m 28,6 h 4 v 22 h -4 z"
       id="path39" />
  </g>
  <g
     id="pressed-top"
     transform="translate(68)"
     style="opacity:0.8">
    <path
       style="opacity:0.001"
       d="M 28,0 V 6 H 6 V 0 Z"
       id="path40" />
    <path
       style="opacity:1;fill:url(#linearGradient1392)"
       d="M 28,2 V 6 H 6 V 2 Z"
       id="path41" />
  </g>
  <g
     id="pressed-bottom"
     transform="translate(68)"
     style="opacity:0.8">
    <path
       style="opacity:0.001"
       d="m 28,28 v 6 H 6 v -6 z"
       id="path42" />
    <path
       style="opacity:1;fill:url(#linearGradient1384)"
       d="m 28,28 v 4 H 6 v -4 z"
       id="path43" />
  </g>
  <g
     id="pressed-bottomright"
     transform="translate(68)"
     style="opacity:0.8">
    <path
       style="opacity:0.001"
       d="m 28,28 h 6 v 6 h -6 z"
       id="path44" />
    <path
       style="opacity:1;fill:url(#linearGradient1386)"
       d="m 28,32 v -4 h 4 c 0,4 -4,4 -4,4 z"
       id="path45" />
  </g>
  <g
     id="pressed-topright"
     transform="translate(68)"
     style="opacity:0.8">
    <path
       style="opacity:0.001"
       d="m 28,0 h 6 v 6 h -6 z"
       id="path46" />
    <path
       style="opacity:1;fill:url(#linearGradient1390)"
       d="m 28,2 v 4 h 4 C 32,2 28,2 28,2 Z"
       id="path47" />
  </g>
  <g
     id="pressed-bottomleft"
     transform="translate(68)"
     style="opacity:0.8">
    <path
       style="opacity:0.001"
       d="m 0,28 h 6 v 6 H 0 Z"
       id="path48" />
    <path
       style="opacity:1;fill:url(#linearGradient1382)"
       d="M 6,32 V 28 H 2 c 0,4 4,4 4,4 z"
       id="path49" />
  </g>
  <path
     id="normal-hint-top-margin"
     style="fill:#ff0000"
     d="m 16,0 h 2 v 6 h -2 z" />
  <path
     id="normal-hint-bottom-margin"
     style="fill:#ff0000"
     d="m 16,28 h 2 v 6 h -2 z" />
  <path
     id="normal-hint-left-margin"
     style="fill:#ff0000"
     d="m 0,16 h 6.0000002 v 2 H 0 Z" />
  <path
     id="normal-hint-right-margin"
     style="fill:#ff0000"
     d="m 28,16 h 6 v 2 h -6 z" />
  <path
     id="hover-hint-top-margin"
     style="fill:#ff0000"
     d="m 50,0 h 2 v 6 h -2 z" />
  <path
     id="hover-hint-bottom-margin"
     style="fill:#ff0000"
     d="m 50,28 h 2 v 6 h -2 z" />
  <path
     id="hover-hint-left-margin"
     style="fill:#ff0000"
     d="m 34,16 h 6 v 2 h -6 z" />
  <path
     id="hover-hint-right-margin"
     style="fill:#ff0000"
     d="m 62,16 h 6 v 2 h -6 z" />
  <path
     id="pressed-hint-top-margin"
     style="fill:#ff0000"
     d="m 84,0 h 2 v 6 h -2 z" />
  <path
     id="pressed-hint-bottom-margin"
     style="fill:#ff0000"
     d="m 84,28 h 2 v 6 h -2 z" />
  <path
     id="pressed-hint-left-margin"
     style="fill:#ff0000"
     d="m 68,16 h 6 v 2 h -6 z" />
  <path
     id="pressed-hint-right-margin"
     style="fill:#ff0000"
     d="m 96,16 h 6 v 2 h -6 z" />
  <rect
     id="hint-stretch-borders"
     style="fill:#ff0000"
     width="2"
     height="2"
     x="0"
     y="0" />
</svg>
